<svg xmlns="http://www.w3.org/2000/svg" viewBox="0 0 385 97.3"><defs><style>.cls-1{fill:#2d95fc;}.cls-2{fill:#226fbd;}.cls-3{fill:#8596a8;}.cls-4{fill:#a1b9c6;}</style></defs><title>Recurso 3</title><g id="Capa_2" data-name="Capa 2"><g id="Capa_1-2" data-name="Capa 1"><path class="cls-1" d="M351.73,43c-.2,0-.25.1-.3.4-.1.6-.8,8.75-.9,9.35s.2.8.6.8.6-.1.91-.6.5-.9.8-.9.6.2,1.21.6c2,1.51,4.42,2.41,8.54,2.41,6.64,0,10.66-5,10.66-11.16,0-3.37-.91-5.48-2.51-7.19-1.91-2-4.33-3-7.24-3.92-2-.6-4.83-1.81-6.14-3.11a6.16,6.16,0,0,1-1.4-4.53,5.37,5.37,0,0,1,5.63-5.08,6.61,6.61,0,0,1,5.23,2.12,14.54,14.54,0,0,1,3.11,5.32.39.39,0,0,0,.5.31l.81-.26a.33.33,0,0,0,.3-.35c0-.5-.8-7.54-.8-8.34,0-.5-.1-.81-.41-.81a.88.88,0,0,0-.7.31L369,19a.87.87,0,0,1-1.06.15A15.79,15.79,0,0,0,361.59,18a10.26,10.26,0,0,0-7.14,2.42,8.53,8.53,0,0,0-3.52,7c0,3.07.8,5.58,2.51,7.19a23.85,23.85,0,0,0,7.34,4.22c5.33,2,7.44,3.52,7.44,8.15,0,4.17-3.82,5.88-6.53,5.88a7.82,7.82,0,0,1-6.64-3.62,11.58,11.58,0,0,1-1.91-5.73c0-.3-.1-.4-.3-.4Zm-16.38-4.08c0,4-.1,11.27-.15,11.77-.15,1.46-.56,1.76-1.46,1.76h-3.12c-.3,0-.4.1-.4.4V54c0,.25.1.45.4.45.71,0,2.62-.15,7.54-.15,4.43,0,6.84.15,7.44.15.4,0,.4-.2.4-.51V52.81c0-.15,0-.35-.3-.35H343c-.91,0-1.36-.81-1.41-2.72,0-.85-.1-8.19-.1-11.21V35c0-1.3,0-11.36,0-12.46s.15-2,1.46-2h2.21c.3,0,.4-.2.4-.51V19c0-.25-.1-.45-.3-.45-.6,0-2.31.2-9.65.15-1.21,0-1.81.1-2,.6-.25,1-4.78,11.36-5.68,13.47-1.31,3-4.88,11.26-5.33,12.17-1.51-4.12-8.55-20.81-10.36-25.54a1.12,1.12,0,0,0-1.2-.85c-.6,0-2,.15-4.42.15-5.33,0-6.64-.15-7.14-.15-.3,0-.41.2-.41.3v1.36a.36.36,0,0,0,.41.35h2.21c2.21,0,2.46,1.1,2.46,2.91v8.6c0,.9-.3,13.27-.75,16.79-.25,1.76-.81,3.57-2.52,3.57h-2.31c-.3,0-.3.2-.3.3V54c0,.35,0,.45.4.45s2.21-.15,6.54-.15c3.82,0,5.23.15,5.73.15s.5-.2.5-.4V52.81a.36.36,0,0,0-.4-.35h-2.21c-1.61,0-2.21-1.91-2.42-4.23-.3-3.26-.25-11.81-.25-12.41s.05-13.27.25-14c.61.61,5.23,11.87,6.14,14.18.3.8,6.83,16.49,7,16.79.21.6.51.9.81.9.5,0,.9-.7,1.1-1.1s5.38-12.37,6.14-14c.6-1.3,6.93-16,7.34-16.69h.2c.1.21.1,12.67.1,14.18Zm-44.14-4.82c0-.6.1-11.66.1-12.17,0-1,.81-1.35,1.91-1.35h1.91a.38.38,0,0,0,.41-.41V19c0-.25-.1-.45-.41-.45-.7,0-2.31.15-7.13.15s-7.55-.15-8.15-.15c-.2,0-.3.1-.3.35v1.31c0,.25.1.35.4.35h2.62c1.4,0,1.91.5,2.06,1.71.05.65.15,9.7.15,10.9v3.52c0,2.72-.1,13.58-.2,14.28-.2,1.36-1.31,1.46-2.32,1.46h-2c-.3,0-.4.1-.4.3v1.36c0,.25.1.35.4.35.51,0,2.72-.15,7.75-.15,4.72,0,6.73.15,7.33.15.31,0,.51-.1.51-.4V52.81a.35.35,0,0,0-.4-.35h-2.12c-1.2,0-2-.2-2-1.81,0-.56-.1-12.12-.1-12.62ZM252.1,38.48c.36-1.15,4.88-13.52,5.08-14.17.15-.46.35-.66.65-.66s.31.31.51.91c.3,1,3.72,12.46,4.22,13.92Zm11,2c.61,1.86,2.62,8.3,3,10.11.3,1.35-.1,1.86-1.51,1.86h-1.31c-.3,0-.4.1-.4.4v1c0,.31.1.61.5.61,1.11,0,2.82-.15,7-.15,5.53,0,6.54.15,7.44.15.4,0,.5-.3.5-.61v-1c0-.25-.1-.35-.4-.35h-1.61a3.8,3.8,0,0,1-3.21-2.32c-.71-1.35-3.92-10.7-5.13-14.62-.91-3.22-4.83-14.48-5.73-17.6-.1-.3-.3-.9-.61-.9s-.45.2-.75.5a16.3,16.3,0,0,1-5,2.51c-.4.1-.5.31-.5.51a1.14,1.14,0,0,0,.3.6c.3.3,0,1.21-.1,1.71-.5,1.31-4.57,12.16-4.92,13.17-1.51,4.22-5.13,13.27-5.63,14.18-.91,1.55-1.81,2.26-3.22,2.26h-1.51c-.2,0-.3.1-.3.4v1c0,.36,0,.66.3.66.71,0,1.81-.15,5.53-.15,3.52,0,5.63.15,6.33.15.31,0,.41-.2.41-.51V52.71c0-.15-.1-.25-.51-.25H250c-1,0-1.81-.56-1.81-1.21a4.31,4.31,0,0,1,.1-1c.25-1.36,2.72-8.55,3.12-9.71Zm-23.72,3.17c-.31-.1-.41,0-.61.2-.7,1.91-3.92,7.94-6.73,8.35-2,.25-5.63.25-8.45.25h-2.81c-.2-2.16-.2-13-.2-13.93V34.21c0-3.52.2-11.06.2-11.76,0-1.36.2-1.86,1.71-1.86h2.71c.4,0,.5-.2.5-.41V19c0-.25-.1-.45-.5-.45s-2.51.15-7.94.15c-4.63,0-6.44-.15-6.94-.15-.3,0-.4.1-.4.4v1.15a.43.43,0,0,0,.4.46h2.11c1.31,0,1.51.5,1.61,1.81.1.85.2,6.18.2,9.4v2.81c0,3-.2,15.59-.2,16.49,0,.65-.3,1.36-2.11,1.36h-2c-.3,0-.3.1-.3.4V54c0,.35,0,.45.4.45.6,0,2.41-.15,6.94-.15,5.12,0,19.6.1,20.91.15.3-1.36,2.31-9.7,2.51-10,0-.3,0-.4-.1-.5ZM205.2,45.37c-.15-.15-.35,0-.6.35a14.64,14.64,0,0,1-12,5.83c-2.42,0-5.33-.4-8.65-3.92-3.72-4-4.62-10-4.62-13.07,0-7.24,3.31-14.48,11.36-14.48a12,12,0,0,1,8.74,3.72,17.86,17.86,0,0,1,3.92,6.54c.16.4.31.6.56.5l.95-.3c.2-.05.25-.2.2-.5-.2-1.47-1.2-9.51-1.2-10.47,0-.73-.1-.84-.71-.84s-.7,0-.8.32l-.4,1.37c-.1.42-.31.42-1,0A21.4,21.4,0,0,0,190.78,18a17.39,17.39,0,0,0-13.07,5.33,19.5,19.5,0,0,0-5.13,13.47c0,4.43,1.71,10.26,5.43,13.58,3.12,2.81,6.74,4.72,13.17,4.72,7.14,0,12-4.12,15-8.44a.4.4,0,0,0-.1-.51Z"/><path class="cls-2" d="M146.1,43c-.2,0-.25.1-.3.4-.1.6-.81,8.75-.91,9.35s.2.8.61.8.6-.1.9-.6.5-.9.8-.9.61.2,1.21.6c2,1.51,4.42,2.41,8.55,2.41,6.63,0,10.65-5,10.65-11.16,0-3.37-.9-5.48-2.51-7.19-1.91-2-4.32-3-7.24-3.92a16.9,16.9,0,0,1-6.13-3.11,6.13,6.13,0,0,1-1.41-4.53A5.37,5.37,0,0,1,156,20.08a6.61,6.61,0,0,1,5.23,2.12,14.59,14.59,0,0,1,3.12,5.32.39.39,0,0,0,.5.31l.8-.26c.2-.05.31-.15.31-.35,0-.5-.81-7.54-.81-8.34,0-.5-.1-.81-.4-.81a.92.92,0,0,0-.71.31l-.65.65a.86.86,0,0,1-1.05.15A15.9,15.9,0,0,0,156,18a10.28,10.28,0,0,0-7.14,2.42,8.53,8.53,0,0,0-3.52,7c0,3.07.81,5.58,2.52,7.19a23.74,23.74,0,0,0,7.34,4.22c5.33,2,7.44,3.52,7.44,8.15,0,4.17-3.82,5.88-6.54,5.88a7.81,7.81,0,0,1-6.63-3.62,11.58,11.58,0,0,1-1.91-5.73c0-.3-.1-.4-.31-.4Zm-36.4-8c0,6.59.21,9.91.91,12.12a10.23,10.23,0,0,0,5.93,6.73,20.52,20.52,0,0,0,7.24,1.21A13.57,13.57,0,0,0,132.93,52c2.71-2.41,3.92-5.53,4.22-9.65.2-2,.3-10.76.3-11.46s0-7.69.1-8.29a2,2,0,0,1,2.11-2h1.81c.26,0,.31-.15.31-.46V19c0-.25-.05-.4-.51-.4s-2,.15-5.12.15c-3.32,0-5.63-.15-6.14-.15-.3,0-.4.1-.4.4v1.26c0,.2.1.35.4.35h1.81a2.2,2.2,0,0,1,2.06,2.21,92.72,92.72,0,0,1,.56,9.6v9.05c0,3.67-1,6.58-2.92,8.49a10.59,10.59,0,0,1-6.73,2.42A8.3,8.3,0,0,1,118,49.24c-1.21-1.61-1.61-3.92-1.76-6.23-.1-1.61-.15-5.18-.15-7.69V29.08c0-2.91.1-5.93.15-6.53a2.2,2.2,0,0,1,2.46-2h2.11c.31,0,.41-.1.41-.41V18.93c0-.25-.1-.35-.41-.35-.6,0-3,.15-7.23.15-4.83,0-7.24-.15-7.75-.15s-.5.1-.5.4v1.15c0,.36.1.46.4.46H108c1.3,0,1.7.8,1.7,2.51Z"/><path class="cls-3" d="M12.64,36.63A38.91,38.91,0,0,0,62,93.35l-.25-1.07A38.92,38.92,0,0,1,33,22.2l.38-1A38.8,38.8,0,0,0,12.64,36.63"/><path class="cls-2" d="M21,61.62a37,37,0,0,0,68.65-22l1-.16a37,37,0,1,1-70.58,21.7Z"/><path class="cls-4" d="M71.66,42.45A25.17,25.17,0,0,0,23.55,51.7l-.71,0a25.17,25.17,0,1,1,49.39-8.89Z"/><path class="cls-3" d="M69.26,4.6l-.39-.21-.05,0-.39-.2h0L68,4h0l-.42-.2h0A37.49,37.49,0,0,0,58.32.67h0l-.9-.16h0L57,.44h0L56.51.37h0L56.07.31H56l-.41,0h0l-.4,0h-.09l-.4,0h-.07l-.34,0h-.11l-.37,0h-.12l-.3,0h-.12l-.35,0H48.84l-.3,0h-.09l-.4,0H48l-.4,0h-.1l-.3,0h0L47,.24l-.32,0h-.06l-.41,0h-.1l-.29,0-.16,0h0l-.29.05h0l-.16,0h0l-.25,0-.19,0-.27,0-.18,0L44,.69l-.24.05-.21,0-.26,0-.17,0-.32.07-.11,0-.33.08-.12,0-.34.09-.07,0-.38.1-.09,0L41,1.41h0l-.42.12.07,1.06H41a37.62,37.62,0,0,1,9.8,1.51l.41.12.42.13A37.67,37.67,0,0,1,75.75,52.64h0c-.1.29-.21.58-.32.86h0A37.86,37.86,0,0,1,56.73,74l-.53.86h0a37.69,37.69,0,0,0,28.33-19.8h0l.42-.81h0c.14-.27.27-.55.4-.82v0c.13-.27.26-.55.38-.83h0c.24-.56.47-1.13.68-1.69l0,0c.1-.27.2-.54.29-.81l0-.07c.09-.26.18-.52.26-.79l0-.09.24-.77,0-.1c.07-.26.15-.52.22-.78l0-.1c.07-.25.14-.51.2-.77l0-.11.18-.78,0-.09c.06-.27.11-.53.16-.8l0-.08.15-.83v0c0-.29.1-.58.14-.87h0a37.07,37.07,0,0,0,.39-5.36A37.66,37.66,0,0,0,85,20.94h0c-.13-.26-.26-.53-.4-.79l0,0-.42-.78,0,0c-.14-.25-.28-.5-.43-.74l0-.08-.44-.72,0-.08-.45-.7-.06-.09-.46-.69-.07-.09-.48-.67-.07-.1-.5-.66L81,14.58l-.52-.66-.07-.08c-.18-.22-.36-.44-.55-.65l-.06-.08-.57-.65-.06-.06-.6-.65,0-.05-.63-.65,0,0c-.22-.22-.44-.44-.67-.65L77,10.26l-.12-.11-.11-.1L76.7,10h0l-.11-.11-.12-.1-.11-.1h0a37,37,0,0,0-6.94-4.95Z"/><path class="cls-2" d="M59,11.51c-.88-.58-1.78-1.12-2.69-1.62A38,38,0,0,0,4,60.18l1-.25a38,38,0,0,1,68.2-28.65l1,.37A37.8,37.8,0,0,0,59,11.51"/><path class="cls-1" d="M380,21.78c.65,0,1.8.13,1.8-.71,0-.55-.71-.65-1.28-.65h-1.42v1.36ZM382.45,25h-.89L380,22.53h-.9V25h-.74V19.68h2.3c1,0,1.88.26,1.88,1.4s-.73,1.42-1.66,1.45Zm1.8-2.62a4.11,4.11,0,1,0-4.1,4.09A4.11,4.11,0,0,0,384.25,22.35Zm-8.95,0a4.85,4.85,0,1,1,4.85,4.83A4.8,4.8,0,0,1,375.3,22.35Z"/><polygon class="cls-3" points="337.33 83.56 337.33 73.25 334.85 73.25 335.61 71.71 339.1 71.71 339.1 83.56 337.33 83.56"/><path class="cls-3" d="M348,79.06a3.71,3.71,0,0,1-.77.27,3.46,3.46,0,0,1-.78.09,3.5,3.5,0,0,1-2.65-1.08,3.82,3.82,0,0,1-1-2.77,3.93,3.93,0,0,1,1.17-3A4.23,4.23,0,0,1,347,71.47a3.89,3.89,0,0,1,2.87,1.1A4,4,0,0,1,351,75.46q0,1.92-2.63,5.6l-.2.29-2.11,3-1.47-.75Zm1.09-3.62a2.46,2.46,0,0,0-.59-1.73,2,2,0,0,0-1.54-.65,2.23,2.23,0,0,0-1.69.64,2.4,2.4,0,0,0-.61,1.74,2.5,2.5,0,0,0,.6,1.77,2.17,2.17,0,0,0,1.67.64,2,2,0,0,0,1.56-.68A2.48,2.48,0,0,0,349.12,75.44Z"/><path class="cls-3" d="M358.14,79.06a3.63,3.63,0,0,1-.76.27,3.73,3.73,0,0,1-3.44-1,3.81,3.81,0,0,1-1-2.77,3.92,3.92,0,0,1,1.16-3,4.25,4.25,0,0,1,3.08-1.13,3.76,3.76,0,0,1,4,4q0,1.92-2.63,5.6l-.2.29-2.11,3-1.47-.75Zm1.09-3.62a2.5,2.5,0,0,0-.58-1.73,2,2,0,0,0-1.55-.65,2.23,2.23,0,0,0-1.69.64,2.4,2.4,0,0,0-.61,1.74,2.5,2.5,0,0,0,.6,1.77,2.19,2.19,0,0,0,1.67.64,2,2,0,0,0,1.56-.68A2.48,2.48,0,0,0,359.23,75.44Z"/><path class="cls-3" d="M366,76.29a4.41,4.41,0,0,1,.79-.28,2.91,2.91,0,0,1,.77-.1A3.47,3.47,0,0,1,370.23,77a3.82,3.82,0,0,1,1,2.78,4,4,0,0,1-1.16,3A4.24,4.24,0,0,1,367,83.88a3.86,3.86,0,0,1-2.87-1.1,4,4,0,0,1-1.09-2.91c0-1.28.88-3.14,2.62-5.6l.21-.28,2.1-3,1.48.75Zm-1.09,3.6a2.44,2.44,0,0,0,.6,1.72,2,2,0,0,0,1.54.66,2.22,2.22,0,0,0,1.69-.64,2.4,2.4,0,0,0,.61-1.74,2.43,2.43,0,0,0-.61-1.76,2.2,2.2,0,0,0-1.67-.63,2,2,0,0,0-1.56.66A2.48,2.48,0,0,0,364.94,79.89Z"/><rect class="cls-3" x="293.6" y="67.6" width="1.76" height="20.25"/><path class="cls-3" d="M279.88,77.54h4.71c0,.08,0,.2,0,.34,0,.39,0,.65,0,.78a5.15,5.15,0,0,1-1.44,3.9A5.58,5.58,0,0,1,279.13,84a7.29,7.29,0,0,1-2.61-.43,5.49,5.49,0,0,1-2-1.3,6,6,0,0,1-1.3-2,6.88,6.88,0,0,1-.45-2.49,6.53,6.53,0,0,1,.46-2.49,5.82,5.82,0,0,1,1.36-2,5.88,5.88,0,0,1,2-1.3,6.94,6.94,0,0,1,2.51-.45,5.81,5.81,0,0,1,2.51.52,5.61,5.61,0,0,1,2,1.56l-1.41,1.07a3.84,3.84,0,0,0-1.36-1,4,4,0,0,0-1.69-.34A4.24,4.24,0,0,0,276,74.47a4.37,4.37,0,0,0-1.22,3.22A4.44,4.44,0,0,0,276,81a4.23,4.23,0,0,0,3.18,1.26,4.08,4.08,0,0,0,2.61-.77,2.59,2.59,0,0,0,.95-2.11v-.17h-2.86Zm-20,6.1V71.26l7.57,7.28c.21.2.41.42.63.66s.43.49.67.78V71.73h1.78V84.1l-7.72-7.41c-.2-.2-.4-.41-.59-.63a8.88,8.88,0,0,1-.55-.7v8.28Zm-4.69,0V71.73h1.93V83.64Zm-12.34,0V71.73h2.61a17.34,17.34,0,0,1,3.59.25,5.1,5.1,0,0,1,1.82.86,5,5,0,0,1,1.56,2,7.74,7.74,0,0,1,0,5.63,4.94,4.94,0,0,1-3.34,2.88,13.67,13.67,0,0,1-3.11.26h-3.13Zm1.94-1.75h1.63a8.37,8.37,0,0,0,2-.18,3,3,0,0,0,1.17-.6,3.69,3.69,0,0,0,1-1.44,5.55,5.55,0,0,0,.34-2,5.49,5.49,0,0,0-.34-2,3.62,3.62,0,0,0-1-1.44,3.06,3.06,0,0,0-1.21-.6,9.8,9.8,0,0,0-2.21-.18h-1.39Zm-15.29,1.75V71.26l7.57,7.28c.2.2.41.42.62.66s.44.49.67.78V71.73h1.78V84.1l-7.71-7.41q-.32-.3-.6-.63c-.19-.23-.37-.46-.55-.7v8.28ZM217.12,71.73H219V79a3.45,3.45,0,0,0,.74,2.42,2.89,2.89,0,0,0,2.23.81,2.86,2.86,0,0,0,2.21-.81A3.45,3.45,0,0,0,225,79V71.73h1.94v7.41a4.86,4.86,0,0,1-1.22,3.61,6.25,6.25,0,0,1-7.35,0,4.89,4.89,0,0,1-1.21-3.62Zm-8.67,11.91V71.73h6.65v1.65h-4.72v3h4.72V78h-4.72v5.6Zm-20,0V71.26L196,78.54q.32.3.63.66c.21.23.43.49.67.78V71.73h1.78V84.1l-7.72-7.41c-.2-.2-.4-.41-.59-.63a8.88,8.88,0,0,1-.55-.7v8.28Zm-2.2-5.93a6.3,6.3,0,0,1-.47,2.4,6.1,6.1,0,0,1-1.39,2,6.39,6.39,0,0,1-4.5,1.83,6.4,6.4,0,0,1-2.45-.47,6.32,6.32,0,0,1-2.06-1.36,5.93,5.93,0,0,1-1.38-2,6.15,6.15,0,0,1-.47-2.4A6.27,6.27,0,0,1,174,75.3a6.1,6.1,0,0,1,1.38-2,6.2,6.2,0,0,1,2.07-1.34,6.57,6.57,0,0,1,4.88,0,6.16,6.16,0,0,1,2.06,1.34,6.44,6.44,0,0,1,1.39,2A6.3,6.3,0,0,1,186.21,77.71Zm-2,0a4.54,4.54,0,0,0-.33-1.72,4.46,4.46,0,0,0-1-1.44,4.26,4.26,0,0,0-4.74-1,4.1,4.1,0,0,0-1.41,1,4.14,4.14,0,0,0-.94,1.43,4.59,4.59,0,0,0-.33,1.73,4.49,4.49,0,0,0,.33,1.71,4.33,4.33,0,0,0,.94,1.43,4.1,4.1,0,0,0,1.41,1,4.27,4.27,0,0,0,4.74-1,4.44,4.44,0,0,0,1.28-3.14Zm-14.89,5.93V71.73h1.93V83.64Zm-4.64-10.26V83.64h-1.93V73.38h-3.16V71.73h8.24v1.65ZM158.6,83.64l-1.35-3.07h-4.72l-1.38,3.07h-2l5.76-12.38,5.76,12.38ZM153.25,79h3.32l-1.23-2.72c-.06-.17-.14-.37-.21-.59s-.16-.48-.23-.76c-.07.26-.14.51-.21.73s-.15.43-.22.62ZM144,77.54h4.71c0,.08,0,.2,0,.34,0,.39,0,.65,0,.78a5.15,5.15,0,0,1-1.44,3.9A5.58,5.58,0,0,1,143.23,84a7.29,7.29,0,0,1-2.61-.43,5.49,5.49,0,0,1-2-1.3,6,6,0,0,1-1.3-2,6.88,6.88,0,0,1-.45-2.49,6.53,6.53,0,0,1,.46-2.49,5.82,5.82,0,0,1,1.36-2,5.88,5.88,0,0,1,2-1.3,6.94,6.94,0,0,1,2.51-.45,5.81,5.81,0,0,1,2.51.52,5.61,5.61,0,0,1,2,1.56l-1.41,1.07a3.84,3.84,0,0,0-1.36-1,4,4,0,0,0-1.69-.34,4.24,4.24,0,0,0-3.16,1.24,4.37,4.37,0,0,0-1.22,3.22A4.44,4.44,0,0,0,140.1,81a4.23,4.23,0,0,0,3.18,1.26,4.08,4.08,0,0,0,2.61-.77,2.59,2.59,0,0,0,1-2.11v-.17H144Zm-11.3,6.1V71.73h1.94V83.64Zm-4.63-10.26V83.64h-1.93V73.38H123V71.73h8.25v1.65Zm-8.54,10.26V71.73h1.93V83.64Zm-7.84,0V71.73h1.93V81.9h4.33v1.74Z"/><path class="cls-3" d="M328.25,82.74a1.06,1.06,0,0,1,.31-.77,1.07,1.07,0,0,1,1.51,0,1.06,1.06,0,0,1,.31.77,1,1,0,0,1-.31.74,1.07,1.07,0,0,1-1.51,0,1,1,0,0,1-.31-.74m-4.46.9V77.47h-1.35V75.93h1.35V73h1.76v2.92h1.35v1.54h-1.35v6.17Zm-9.49-1.4,1.47-.8a1.56,1.56,0,0,0,.6.88,2,2,0,0,0,1.13.3,1.43,1.43,0,0,0,.93-.27.9.9,0,0,0,.34-.75c0-.41-.4-.77-1.2-1.07-.27-.1-.48-.18-.63-.25a5,5,0,0,1-1.73-1,1.8,1.8,0,0,1-.49-1.28,2,2,0,0,1,.81-1.68,3.39,3.39,0,0,1,2.14-.64,3.26,3.26,0,0,1,1.53.33,2,2,0,0,1,.93.94l-1.25.86a1.17,1.17,0,0,0-.48-.58,1.52,1.52,0,0,0-.8-.21,1.32,1.32,0,0,0-.81.23.79.79,0,0,0-.3.64c0,.4.45.77,1.36,1.1l.66.25a3.91,3.91,0,0,1,1.53,1,1.94,1.94,0,0,1,.46,1.33,2.17,2.17,0,0,1-.84,1.81,3.71,3.71,0,0,1-2.31.65,3.82,3.82,0,0,1-1.88-.42A3,3,0,0,1,314.3,82.24Zm-8.92,1.4V71.73H312v1.65h-4.71v3H312v1.7h-4.71V81.9H312v1.74Z"/></g></g></svg>